<mxfile host="app.diagrams.net" agent="Mozilla/5.0 (X11; Linux x86_64; rv:138.0) Gecko/20100101 Firefox/138.0" version="27.0.6">
  <diagram name="第 1 页" id="BGZTpNmxpJj2rvD2V_N9">
    <mxGraphModel dx="1654" dy="908" grid="1" gridSize="10" guides="1" tooltips="1" connect="1" arrows="1" fold="1" page="1" pageScale="1" pageWidth="827" pageHeight="1169" math="0" shadow="0">
      <root>
        <mxCell id="0" />
        <mxCell id="1" parent="0" />
        <mxCell id="ttQ9EWWm4veQvwNG5wGS-71" value="" style="group" vertex="1" connectable="0" parent="1">
          <mxGeometry x="550" y="328" width="140" height="94" as="geometry" />
        </mxCell>
        <mxCell id="ttQ9EWWm4veQvwNG5wGS-68" value="" style="rounded=0;whiteSpace=wrap;html=1;" vertex="1" parent="ttQ9EWWm4veQvwNG5wGS-71">
          <mxGeometry y="4" width="140" height="90" as="geometry" />
        </mxCell>
        <mxCell id="ttQ9EWWm4veQvwNG5wGS-69" value="&lt;b&gt;&lt;font style=&quot;font-size: 17px;&quot;&gt;Attention&lt;/font&gt;&lt;/b&gt;" style="rounded=1;whiteSpace=wrap;html=1;fillColor=#ffe6cc;strokeColor=#d79b00;sketch=1;curveFitting=1;jiggle=2;" vertex="1" parent="ttQ9EWWm4veQvwNG5wGS-71">
          <mxGeometry x="10" y="24" width="120" height="60" as="geometry" />
        </mxCell>
        <mxCell id="ttQ9EWWm4veQvwNG5wGS-70" value="&lt;b&gt;Node2&lt;/b&gt;" style="text;html=1;align=center;verticalAlign=middle;whiteSpace=wrap;rounded=0;" vertex="1" parent="ttQ9EWWm4veQvwNG5wGS-71">
          <mxGeometry x="38" width="60" height="30" as="geometry" />
        </mxCell>
        <mxCell id="ttQ9EWWm4veQvwNG5wGS-72" value="" style="group" vertex="1" connectable="0" parent="1">
          <mxGeometry x="550" y="433" width="140" height="94" as="geometry" />
        </mxCell>
        <mxCell id="ttQ9EWWm4veQvwNG5wGS-73" value="" style="rounded=0;whiteSpace=wrap;html=1;" vertex="1" parent="ttQ9EWWm4veQvwNG5wGS-72">
          <mxGeometry y="4" width="140" height="90" as="geometry" />
        </mxCell>
        <mxCell id="ttQ9EWWm4veQvwNG5wGS-78" style="edgeStyle=orthogonalEdgeStyle;rounded=0;orthogonalLoop=1;jettySize=auto;html=1;exitX=1;exitY=0.5;exitDx=0;exitDy=0;" edge="1" parent="ttQ9EWWm4veQvwNG5wGS-72" source="ttQ9EWWm4veQvwNG5wGS-74">
          <mxGeometry relative="1" as="geometry">
            <mxPoint x="160" y="54.31034482758628" as="targetPoint" />
          </mxGeometry>
        </mxCell>
        <mxCell id="ttQ9EWWm4veQvwNG5wGS-74" value="&lt;b&gt;&lt;font style=&quot;font-size: 17px;&quot;&gt;Attention&lt;/font&gt;&lt;/b&gt;" style="rounded=1;whiteSpace=wrap;html=1;fillColor=#ffe6cc;strokeColor=#d79b00;sketch=1;curveFitting=1;jiggle=2;" vertex="1" parent="ttQ9EWWm4veQvwNG5wGS-72">
          <mxGeometry x="10" y="24" width="120" height="60" as="geometry" />
        </mxCell>
        <mxCell id="ttQ9EWWm4veQvwNG5wGS-75" value="&lt;b&gt;Node3&lt;/b&gt;" style="text;html=1;align=center;verticalAlign=middle;whiteSpace=wrap;rounded=0;" vertex="1" parent="ttQ9EWWm4veQvwNG5wGS-72">
          <mxGeometry x="38" width="60" height="30" as="geometry" />
        </mxCell>
        <mxCell id="ttQ9EWWm4veQvwNG5wGS-63" value="" style="rounded=0;whiteSpace=wrap;html=1;" vertex="1" parent="1">
          <mxGeometry x="550" y="230" width="140" height="90" as="geometry" />
        </mxCell>
        <mxCell id="ttQ9EWWm4veQvwNG5wGS-10" value="" style="shape=cube;whiteSpace=wrap;html=1;boundedLbl=1;backgroundOutline=1;darkOpacity=0.05;darkOpacity2=0.1;direction=south;fillColor=#d5e8d4;strokeColor=#82b366;sketch=1;curveFitting=1;jiggle=2;size=10;" vertex="1" parent="1">
          <mxGeometry x="210" y="315" width="40" height="130" as="geometry" />
        </mxCell>
        <mxCell id="ttQ9EWWm4veQvwNG5wGS-11" value="" style="endArrow=none;dashed=1;html=1;dashPattern=1 3;strokeWidth=2;rounded=0;" edge="1" parent="1">
          <mxGeometry width="50" height="50" relative="1" as="geometry">
            <mxPoint x="160" y="379.5" as="sourcePoint" />
            <mxPoint x="200" y="380" as="targetPoint" />
          </mxGeometry>
        </mxCell>
        <mxCell id="ttQ9EWWm4veQvwNG5wGS-14" value="" style="shape=cube;whiteSpace=wrap;html=1;boundedLbl=1;backgroundOutline=1;darkOpacity=0.05;darkOpacity2=0.1;direction=south;fillColor=#d5e8d4;strokeColor=#82b366;sketch=1;curveFitting=1;jiggle=2;size=10;" vertex="1" parent="1">
          <mxGeometry x="110" y="315" width="40" height="130" as="geometry" />
        </mxCell>
        <mxCell id="ttQ9EWWm4veQvwNG5wGS-15" value="" style="shape=cube;whiteSpace=wrap;html=1;boundedLbl=1;backgroundOutline=1;darkOpacity=0.05;darkOpacity2=0.1;direction=south;fillColor=#d5e8d4;strokeColor=#82b366;sketch=1;curveFitting=1;jiggle=2;size=10;" vertex="1" parent="1">
          <mxGeometry x="360" y="320" width="40" height="40" as="geometry" />
        </mxCell>
        <mxCell id="ttQ9EWWm4veQvwNG5wGS-16" value="" style="shape=cube;whiteSpace=wrap;html=1;boundedLbl=1;backgroundOutline=1;darkOpacity=0.05;darkOpacity2=0.1;direction=south;fillColor=#d5e8d4;strokeColor=#82b366;sketch=1;curveFitting=1;jiggle=2;size=10;" vertex="1" parent="1">
          <mxGeometry x="360" y="365" width="40" height="40" as="geometry" />
        </mxCell>
        <mxCell id="ttQ9EWWm4veQvwNG5wGS-17" value="" style="shape=cube;whiteSpace=wrap;html=1;boundedLbl=1;backgroundOutline=1;darkOpacity=0.05;darkOpacity2=0.1;direction=south;fillColor=#d5e8d4;strokeColor=#82b366;sketch=1;curveFitting=1;jiggle=2;size=10;" vertex="1" parent="1">
          <mxGeometry x="360" y="410" width="40" height="40" as="geometry" />
        </mxCell>
        <mxCell id="ttQ9EWWm4veQvwNG5wGS-18" value="" style="endArrow=none;dashed=1;html=1;dashPattern=1 3;strokeWidth=2;rounded=0;" edge="1" parent="1">
          <mxGeometry width="50" height="50" relative="1" as="geometry">
            <mxPoint x="410" y="339.71" as="sourcePoint" />
            <mxPoint x="450" y="340.21" as="targetPoint" />
          </mxGeometry>
        </mxCell>
        <mxCell id="ttQ9EWWm4veQvwNG5wGS-19" value="" style="endArrow=none;dashed=1;html=1;dashPattern=1 3;strokeWidth=2;rounded=0;" edge="1" parent="1">
          <mxGeometry width="50" height="50" relative="1" as="geometry">
            <mxPoint x="409" y="381.71" as="sourcePoint" />
            <mxPoint x="449" y="382.21" as="targetPoint" />
          </mxGeometry>
        </mxCell>
        <mxCell id="ttQ9EWWm4veQvwNG5wGS-20" value="" style="endArrow=none;dashed=1;html=1;dashPattern=1 3;strokeWidth=2;rounded=0;" edge="1" parent="1">
          <mxGeometry width="50" height="50" relative="1" as="geometry">
            <mxPoint x="408" y="428.71" as="sourcePoint" />
            <mxPoint x="448" y="429.21" as="targetPoint" />
          </mxGeometry>
        </mxCell>
        <mxCell id="ttQ9EWWm4veQvwNG5wGS-27" style="edgeStyle=orthogonalEdgeStyle;rounded=0;orthogonalLoop=1;jettySize=auto;html=1;exitX=0;exitY=0;exitDx=15;exitDy=0;exitPerimeter=0;entryX=0;entryY=0.5;entryDx=0;entryDy=0;curved=1;" edge="1" parent="1" source="ttQ9EWWm4veQvwNG5wGS-21" target="ttQ9EWWm4veQvwNG5wGS-24">
          <mxGeometry relative="1" as="geometry" />
        </mxCell>
        <mxCell id="ttQ9EWWm4veQvwNG5wGS-21" value="" style="shape=cube;whiteSpace=wrap;html=1;boundedLbl=1;backgroundOutline=1;darkOpacity=0.05;darkOpacity2=0.1;direction=south;fillColor=#d5e8d4;strokeColor=#82b366;sketch=1;curveFitting=1;jiggle=2;size=10;" vertex="1" parent="1">
          <mxGeometry x="450" y="320" width="40" height="40" as="geometry" />
        </mxCell>
        <mxCell id="ttQ9EWWm4veQvwNG5wGS-28" style="edgeStyle=orthogonalEdgeStyle;rounded=0;orthogonalLoop=1;jettySize=auto;html=1;exitX=0;exitY=0;exitDx=15;exitDy=0;exitPerimeter=0;curved=1;entryX=0;entryY=0.5;entryDx=0;entryDy=0;" edge="1" parent="1" source="ttQ9EWWm4veQvwNG5wGS-22" target="ttQ9EWWm4veQvwNG5wGS-69">
          <mxGeometry relative="1" as="geometry">
            <mxPoint x="560" y="380" as="targetPoint" />
          </mxGeometry>
        </mxCell>
        <mxCell id="ttQ9EWWm4veQvwNG5wGS-22" value="" style="shape=cube;whiteSpace=wrap;html=1;boundedLbl=1;backgroundOutline=1;darkOpacity=0.05;darkOpacity2=0.1;direction=south;fillColor=#d5e8d4;strokeColor=#82b366;sketch=1;curveFitting=1;jiggle=2;size=10;" vertex="1" parent="1">
          <mxGeometry x="450" y="365" width="40" height="40" as="geometry" />
        </mxCell>
        <mxCell id="ttQ9EWWm4veQvwNG5wGS-29" style="edgeStyle=orthogonalEdgeStyle;rounded=0;orthogonalLoop=1;jettySize=auto;html=1;exitX=0;exitY=0;exitDx=15;exitDy=0;exitPerimeter=0;entryX=0;entryY=0.5;entryDx=0;entryDy=0;curved=1;" edge="1" parent="1" source="ttQ9EWWm4veQvwNG5wGS-23" target="ttQ9EWWm4veQvwNG5wGS-74">
          <mxGeometry relative="1" as="geometry">
            <mxPoint x="560" y="480" as="targetPoint" />
          </mxGeometry>
        </mxCell>
        <mxCell id="ttQ9EWWm4veQvwNG5wGS-23" value="" style="shape=cube;whiteSpace=wrap;html=1;boundedLbl=1;backgroundOutline=1;darkOpacity=0.05;darkOpacity2=0.1;direction=south;fillColor=#d5e8d4;strokeColor=#82b366;sketch=1;curveFitting=1;jiggle=2;size=10;" vertex="1" parent="1">
          <mxGeometry x="450" y="410" width="40" height="40" as="geometry" />
        </mxCell>
        <mxCell id="ttQ9EWWm4veQvwNG5wGS-24" value="&lt;b&gt;&lt;font style=&quot;font-size: 17px;&quot;&gt;Attention&lt;/font&gt;&lt;/b&gt;" style="rounded=1;whiteSpace=wrap;html=1;fillColor=#ffe6cc;strokeColor=#d79b00;sketch=1;curveFitting=1;jiggle=2;" vertex="1" parent="1">
          <mxGeometry x="560" y="250" width="120" height="60" as="geometry" />
        </mxCell>
        <mxCell id="ttQ9EWWm4veQvwNG5wGS-30" value="" style="shape=cube;whiteSpace=wrap;html=1;boundedLbl=1;backgroundOutline=1;darkOpacity=0.05;darkOpacity2=0.1;direction=south;fillColor=#f8cecc;strokeColor=#b85450;sketch=1;curveFitting=1;jiggle=2;size=10;" vertex="1" parent="1">
          <mxGeometry x="720" y="260" width="40" height="40" as="geometry" />
        </mxCell>
        <mxCell id="ttQ9EWWm4veQvwNG5wGS-34" value="" style="shape=cube;whiteSpace=wrap;html=1;boundedLbl=1;backgroundOutline=1;darkOpacity=0.05;darkOpacity2=0.1;direction=south;fillColor=#f8cecc;strokeColor=#b85450;sketch=1;curveFitting=1;jiggle=2;size=10;" vertex="1" parent="1">
          <mxGeometry x="770" y="260" width="40" height="40" as="geometry" />
        </mxCell>
        <mxCell id="ttQ9EWWm4veQvwNG5wGS-35" value="" style="shape=cube;whiteSpace=wrap;html=1;boundedLbl=1;backgroundOutline=1;darkOpacity=0.05;darkOpacity2=0.1;direction=south;fillColor=#f8cecc;strokeColor=#b85450;sketch=1;curveFitting=1;jiggle=2;size=10;" vertex="1" parent="1">
          <mxGeometry x="820" y="260" width="40" height="40" as="geometry" />
        </mxCell>
        <mxCell id="ttQ9EWWm4veQvwNG5wGS-36" value="" style="shape=cube;whiteSpace=wrap;html=1;boundedLbl=1;backgroundOutline=1;darkOpacity=0.05;darkOpacity2=0.1;direction=south;fillColor=#fff2cc;strokeColor=#d6b656;sketch=1;curveFitting=1;jiggle=2;size=10;" vertex="1" parent="1">
          <mxGeometry x="720" y="360" width="40" height="40" as="geometry" />
        </mxCell>
        <mxCell id="ttQ9EWWm4veQvwNG5wGS-37" value="" style="shape=cube;whiteSpace=wrap;html=1;boundedLbl=1;backgroundOutline=1;darkOpacity=0.05;darkOpacity2=0.1;direction=south;fillColor=#fff2cc;strokeColor=#d6b656;sketch=1;curveFitting=1;jiggle=2;size=10;" vertex="1" parent="1">
          <mxGeometry x="770" y="360" width="40" height="40" as="geometry" />
        </mxCell>
        <mxCell id="ttQ9EWWm4veQvwNG5wGS-38" value="" style="shape=cube;whiteSpace=wrap;html=1;boundedLbl=1;backgroundOutline=1;darkOpacity=0.05;darkOpacity2=0.1;direction=south;fillColor=#fff2cc;strokeColor=#d6b656;sketch=1;curveFitting=1;jiggle=2;size=10;" vertex="1" parent="1">
          <mxGeometry x="820" y="360" width="40" height="40" as="geometry" />
        </mxCell>
        <mxCell id="ttQ9EWWm4veQvwNG5wGS-39" value="" style="shape=cube;whiteSpace=wrap;html=1;boundedLbl=1;backgroundOutline=1;darkOpacity=0.05;darkOpacity2=0.1;direction=south;fillColor=#dae8fc;strokeColor=#6c8ebf;sketch=1;curveFitting=1;jiggle=2;size=10;" vertex="1" parent="1">
          <mxGeometry x="715" y="464" width="40" height="40" as="geometry" />
        </mxCell>
        <mxCell id="ttQ9EWWm4veQvwNG5wGS-40" value="" style="shape=cube;whiteSpace=wrap;html=1;boundedLbl=1;backgroundOutline=1;darkOpacity=0.05;darkOpacity2=0.1;direction=south;fillColor=#dae8fc;strokeColor=#6c8ebf;sketch=1;curveFitting=1;jiggle=2;size=10;" vertex="1" parent="1">
          <mxGeometry x="770" y="460" width="40" height="40" as="geometry" />
        </mxCell>
        <mxCell id="ttQ9EWWm4veQvwNG5wGS-41" value="" style="shape=cube;whiteSpace=wrap;html=1;boundedLbl=1;backgroundOutline=1;darkOpacity=0.05;darkOpacity2=0.1;direction=south;fillColor=#dae8fc;strokeColor=#6c8ebf;sketch=1;curveFitting=1;jiggle=2;size=10;" vertex="1" parent="1">
          <mxGeometry x="820" y="460" width="40" height="40" as="geometry" />
        </mxCell>
        <mxCell id="ttQ9EWWm4veQvwNG5wGS-42" value="" style="strokeWidth=2;html=1;shape=mxgraph.flowchart.annotation_2;align=left;labelPosition=right;pointerEvents=1;direction=west;" vertex="1" parent="1">
          <mxGeometry x="880" y="270" width="50" height="220" as="geometry" />
        </mxCell>
        <mxCell id="ttQ9EWWm4veQvwNG5wGS-44" value="" style="shape=cube;whiteSpace=wrap;html=1;boundedLbl=1;backgroundOutline=1;darkOpacity=0.05;darkOpacity2=0.1;direction=south;fillColor=#f8cecc;strokeColor=#b85450;sketch=1;curveFitting=1;jiggle=2;size=10;" vertex="1" parent="1">
          <mxGeometry x="950" y="315" width="40" height="40" as="geometry" />
        </mxCell>
        <mxCell id="ttQ9EWWm4veQvwNG5wGS-47" value="" style="shape=cube;whiteSpace=wrap;html=1;boundedLbl=1;backgroundOutline=1;darkOpacity=0.05;darkOpacity2=0.1;direction=south;fillColor=#fff2cc;strokeColor=#d6b656;sketch=1;curveFitting=1;jiggle=2;size=10;" vertex="1" parent="1">
          <mxGeometry x="950" y="360" width="40" height="40" as="geometry" />
        </mxCell>
        <mxCell id="ttQ9EWWm4veQvwNG5wGS-50" value="" style="shape=cube;whiteSpace=wrap;html=1;boundedLbl=1;backgroundOutline=1;darkOpacity=0.05;darkOpacity2=0.1;direction=south;fillColor=#dae8fc;strokeColor=#6c8ebf;sketch=1;curveFitting=1;jiggle=2;size=10;" vertex="1" parent="1">
          <mxGeometry x="950" y="405" width="40" height="40" as="geometry" />
        </mxCell>
        <mxCell id="ttQ9EWWm4veQvwNG5wGS-53" value="" style="shape=cube;whiteSpace=wrap;html=1;boundedLbl=1;backgroundOutline=1;darkOpacity=0.05;darkOpacity2=0.1;direction=south;fillColor=#f8cecc;strokeColor=#b85450;sketch=1;curveFitting=1;jiggle=2;size=10;" vertex="1" parent="1">
          <mxGeometry x="1040" y="315" width="40" height="40" as="geometry" />
        </mxCell>
        <mxCell id="ttQ9EWWm4veQvwNG5wGS-54" value="" style="shape=cube;whiteSpace=wrap;html=1;boundedLbl=1;backgroundOutline=1;darkOpacity=0.05;darkOpacity2=0.1;direction=south;fillColor=#fff2cc;strokeColor=#d6b656;sketch=1;curveFitting=1;jiggle=2;size=10;" vertex="1" parent="1">
          <mxGeometry x="1040" y="360" width="40" height="40" as="geometry" />
        </mxCell>
        <mxCell id="ttQ9EWWm4veQvwNG5wGS-55" value="" style="shape=cube;whiteSpace=wrap;html=1;boundedLbl=1;backgroundOutline=1;darkOpacity=0.05;darkOpacity2=0.1;direction=south;fillColor=#dae8fc;strokeColor=#6c8ebf;sketch=1;curveFitting=1;jiggle=2;size=10;" vertex="1" parent="1">
          <mxGeometry x="1040" y="405" width="40" height="40" as="geometry" />
        </mxCell>
        <mxCell id="ttQ9EWWm4veQvwNG5wGS-56" value="" style="endArrow=none;dashed=1;html=1;dashPattern=1 3;strokeWidth=2;rounded=0;" edge="1" parent="1">
          <mxGeometry width="50" height="50" relative="1" as="geometry">
            <mxPoint x="1007" y="379.66" as="sourcePoint" />
            <mxPoint x="1027" y="380" as="targetPoint" />
          </mxGeometry>
        </mxCell>
        <mxCell id="ttQ9EWWm4veQvwNG5wGS-57" style="edgeStyle=orthogonalEdgeStyle;rounded=0;orthogonalLoop=1;jettySize=auto;html=1;exitX=1;exitY=0.5;exitDx=0;exitDy=0;entryX=0.528;entryY=1.06;entryDx=0;entryDy=0;entryPerimeter=0;" edge="1" parent="1" source="ttQ9EWWm4veQvwNG5wGS-24" target="ttQ9EWWm4veQvwNG5wGS-30">
          <mxGeometry relative="1" as="geometry" />
        </mxCell>
        <mxCell id="ttQ9EWWm4veQvwNG5wGS-58" style="edgeStyle=orthogonalEdgeStyle;rounded=0;orthogonalLoop=1;jettySize=auto;html=1;exitX=1;exitY=0.5;exitDx=0;exitDy=0;entryX=0.51;entryY=1.078;entryDx=0;entryDy=0;entryPerimeter=0;" edge="1" parent="1" target="ttQ9EWWm4veQvwNG5wGS-36">
          <mxGeometry relative="1" as="geometry">
            <mxPoint x="680" y="380" as="sourcePoint" />
          </mxGeometry>
        </mxCell>
        <mxCell id="ttQ9EWWm4veQvwNG5wGS-60" value="&lt;b&gt;&lt;font style=&quot;font-size: 18px;&quot;&gt;send_all&lt;/font&gt;&lt;/b&gt;" style="text;html=1;align=center;verticalAlign=middle;whiteSpace=wrap;rounded=0;" vertex="1" parent="1">
          <mxGeometry x="460" y="200" width="120" height="30" as="geometry" />
        </mxCell>
        <mxCell id="ttQ9EWWm4veQvwNG5wGS-61" value="&lt;font style=&quot;font-size: 18px;&quot;&gt;&lt;b&gt;Gather&lt;/b&gt;&lt;/font&gt;" style="text;html=1;align=center;verticalAlign=middle;whiteSpace=wrap;rounded=0;" vertex="1" parent="1">
          <mxGeometry x="845" y="200" width="120" height="30" as="geometry" />
        </mxCell>
        <mxCell id="ttQ9EWWm4veQvwNG5wGS-62" value="slice" style="shape=singleArrow;whiteSpace=wrap;html=1;fillColor=#e1d5e7;strokeColor=#9673a6;sketch=1;curveFitting=1;jiggle=2;" vertex="1" parent="1">
          <mxGeometry x="270" y="350" width="60" height="50" as="geometry" />
        </mxCell>
        <mxCell id="ttQ9EWWm4veQvwNG5wGS-64" value="&lt;b&gt;Node1&lt;/b&gt;" style="text;html=1;align=center;verticalAlign=middle;whiteSpace=wrap;rounded=0;" vertex="1" parent="1">
          <mxGeometry x="588" y="226" width="60" height="30" as="geometry" />
        </mxCell>
      </root>
    </mxGraphModel>
  </diagram>
</mxfile>
